<svg width="25" height="24" viewBox="0 0 25 24" fill="none" xmlns="http://www.w3.org/2000/svg">
<path d="M9 16.0561H9.01M9 5.05611H7C6.46957 5.05611 5.96086 5.26682 5.58579 5.64189C5.21071 6.01697 5 6.52567 5 7.05611V19.0561C5 19.5865 5.21071 20.0952 5.58579 20.4703C5.96086 20.8454 6.46957 21.0561 7 21.0561H17C17.5304 21.0561 18.0391 20.8454 18.4142 20.4703C18.7893 20.0952 19 19.5865 19 19.0561V7.05611C19 6.52567 18.7893 6.01697 18.4142 5.64189C18.0391 5.26682 17.5304 5.05611 17 5.05611H15H9ZM9 5.05611C9 5.58654 9.21071 6.09525 9.58579 6.47032C9.96086 6.84539 10.4696 7.05611 11 7.05611H13C13.5304 7.05611 14.0391 6.84539 14.4142 6.47032C14.7893 6.09525 15 5.58654 15 5.05611H9ZM9 5.05611C9 4.52567 9.21071 4.01697 9.58579 3.64189C9.96086 3.26682 10.4696 3.05611 11 3.05611H13C13.5304 3.05611 14.0391 3.26682 14.4142 3.64189C14.7893 4.01697 15 4.52567 15 5.05611H9ZM12 12.0561H15H12ZM12 16.0561H15H12ZM9 12.0561H9.01H9Z" stroke="#CCCCCC" stroke-width="2" stroke-linecap="round" stroke-linejoin="round"/>
</svg>
