<svg width="25" height="25" viewBox="0 0 25 25" fill="none" xmlns="http://www.w3.org/2000/svg">
<path d="M3.242 5.16475C3.242 4.63432 3.45272 4.12561 3.82779 3.75054C4.20286 3.37546 4.71157 3.16475 5.242 3.16475H8.522C8.7318 3.16491 8.93623 3.23105 9.10636 3.3538C9.27649 3.47655 9.40371 3.64971 9.47 3.84875L10.968 8.34175C11.0439 8.57009 11.0349 8.81814 10.9427 9.04039C10.8505 9.26265 10.6813 9.4442 10.466 9.55175L8.209 10.6817C9.31532 13.1303 11.2765 15.0914 13.725 16.1978L14.855 13.9407C14.9626 13.7255 15.1441 13.5562 15.3664 13.464C15.5886 13.3718 15.8367 13.3628 16.065 13.4387L20.558 14.9367C20.7572 15.0031 20.9305 15.1305 21.0532 15.3008C21.176 15.4711 21.2421 15.6758 21.242 15.8857V19.1647C21.242 19.6952 21.0313 20.2039 20.6562 20.579C20.2811 20.954 19.7724 21.1647 19.242 21.1647H18.242C9.958 21.1647 3.242 14.4487 3.242 6.16475V5.16475Z" stroke="#CCCCCC" stroke-width="2" stroke-linecap="round" stroke-linejoin="round"/>
</svg>
