<svg width="25" height="24" viewBox="0 0 25 24" fill="none" xmlns="http://www.w3.org/2000/svg">
<path d="M17 20.1922H22V18.1922C22 17.5688 21.8057 16.9608 21.4441 16.4529C21.0826 15.9449 20.5718 15.5622 19.9827 15.358C19.3937 15.1538 18.7556 15.1381 18.1573 15.3133C17.5589 15.4884 17.03 15.8456 16.644 16.3352L17 20.1922ZM17 20.1922H7H17ZM17 20.1922V18.1922C17 17.5362 16.874 16.9092 16.644 16.3352L17 20.1922ZM7 20.1922H2V18.1922C2.00005 17.5688 2.19434 16.9608 2.55586 16.4529C2.91739 15.9449 3.42819 15.5622 4.01725 15.358C4.60632 15.1538 5.24438 15.1381 5.84274 15.3133C6.4411 15.4884 6.97003 15.8456 7.356 16.3352L7 20.1922ZM7 20.1922V18.1922C7 17.5362 7.126 16.9092 7.356 16.3352L7 20.1922ZM7.356 16.3352C7.72736 15.4072 8.36825 14.6117 9.196 14.0514C10.0238 13.491 11.0004 13.1915 12 13.1915C12.9996 13.1915 13.9762 13.491 14.804 14.0514C15.6318 14.6117 16.2726 15.4072 16.644 16.3352H7.356ZM15 7.19225C15 7.98789 14.6839 8.75096 14.1213 9.31357C13.5587 9.87618 12.7956 10.1922 12 10.1922C11.2044 10.1922 10.4413 9.87618 9.87868 9.31357C9.31607 8.75096 9 7.98789 9 7.19225C9 6.3966 9.31607 5.63353 9.87868 5.07093C10.4413 4.50832 11.2044 4.19225 12 4.19225C12.7956 4.19225 13.5587 4.50832 14.1213 5.07093C14.6839 5.63353 15 6.3966 15 7.19225V7.19225ZM21 10.1922C21 10.7227 20.7893 11.2314 20.4142 11.6065C20.0391 11.9815 19.5304 12.1922 19 12.1922C18.4696 12.1922 17.9609 11.9815 17.5858 11.6065C17.2107 11.2314 17 10.7227 17 10.1922C17 9.66181 17.2107 9.15311 17.5858 8.77803C17.9609 8.40296 18.4696 8.19225 19 8.19225C19.5304 8.19225 20.0391 8.40296 20.4142 8.77803C20.7893 9.15311 21 9.66181 21 10.1922ZM7 10.1922C7 10.7227 6.78929 11.2314 6.41421 11.6065C6.03914 11.9815 5.53043 12.1922 5 12.1922C4.46957 12.1922 3.96086 11.9815 3.58579 11.6065C3.21071 11.2314 3 10.7227 3 10.1922C3 9.66181 3.21071 9.15311 3.58579 8.77803C3.96086 8.40296 4.46957 8.19225 5 8.19225C5.53043 8.19225 6.03914 8.40296 6.41421 8.77803C6.78929 9.15311 7 9.66181 7 10.1922Z" stroke="#CCCCCC" stroke-width="2" stroke-linecap="round" stroke-linejoin="round"/>
</svg>
