<svg width="26" height="26" viewBox="0 0 26 26" fill="none" xmlns="http://www.w3.org/2000/svg">
<path d="M6.50002 3.89999C5.81046 3.89999 5.14914 4.17392 4.66155 4.66152C4.17395 5.14911 3.90002 5.81043 3.90002 6.49999V9.09999C3.90002 9.78956 4.17395 10.4509 4.66155 10.9385C5.14914 11.4261 5.81046 11.7 6.50002 11.7H9.10002C9.78959 11.7 10.4509 11.4261 10.9385 10.9385C11.4261 10.4509 11.7 9.78956 11.7 9.09999V6.49999C11.7 5.81043 11.4261 5.14911 10.9385 4.66152C10.4509 4.17392 9.78959 3.89999 9.10002 3.89999H6.50002ZM6.50002 14.3C5.81046 14.3 5.14914 14.5739 4.66155 15.0615C4.17395 15.5491 3.90002 16.2104 3.90002 16.9V19.5C3.90002 20.1896 4.17395 20.8509 4.66155 21.3385C5.14914 21.8261 5.81046 22.1 6.50002 22.1H9.10002C9.78959 22.1 10.4509 21.8261 10.9385 21.3385C11.4261 20.8509 11.7 20.1896 11.7 19.5V16.9C11.7 16.2104 11.4261 15.5491 10.9385 15.0615C10.4509 14.5739 9.78959 14.3 9.10002 14.3H6.50002ZM14.3 6.49999C14.3 5.81043 14.574 5.14911 15.0615 4.66152C15.5491 4.17392 16.2105 3.89999 16.9 3.89999H19.5C20.1896 3.89999 20.8509 4.17392 21.3385 4.66152C21.8261 5.14911 22.1 5.81043 22.1 6.49999V9.09999C22.1 9.78956 21.8261 10.4509 21.3385 10.9385C20.8509 11.4261 20.1896 11.7 19.5 11.7H16.9C16.2105 11.7 15.5491 11.4261 15.0615 10.9385C14.574 10.4509 14.3 9.78956 14.3 9.09999V6.49999ZM14.3 16.9C14.3 16.2104 14.574 15.5491 15.0615 15.0615C15.5491 14.5739 16.2105 14.3 16.9 14.3H19.5C20.1896 14.3 20.8509 14.5739 21.3385 15.0615C21.8261 15.5491 22.1 16.2104 22.1 16.9V19.5C22.1 20.1896 21.8261 20.8509 21.3385 21.3385C20.8509 21.8261 20.1896 22.1 19.5 22.1H16.9C16.2105 22.1 15.5491 21.8261 15.0615 21.3385C14.574 20.8509 14.3 20.1896 14.3 19.5V16.9Z" fill="white"/>
</svg>
