<svg width="25" height="24" viewBox="0 0 25 24" fill="none" xmlns="http://www.w3.org/2000/svg">
<path d="M11 21.4808H15M20 21.4808V5.48077C20 4.95034 19.7893 4.44163 19.4142 4.06656C19.0391 3.69149 18.5304 3.48077 18 3.48077H8C7.46957 3.48077 6.96086 3.69149 6.58579 4.06656C6.21071 4.44163 6 4.95034 6 5.48077V21.4808H20ZM20 21.4808H22H20ZM20 21.4808H15H20ZM6 21.4808H4H6ZM6 21.4808H11H6ZM10 7.48077H11H10ZM10 11.4808H11H10ZM15 7.48077H16H15ZM15 11.4808H16H15ZM11 21.4808V16.4808C11 16.2156 11.1054 15.9612 11.2929 15.7737C11.4804 15.5861 11.7348 15.4808 12 15.4808H14C14.2652 15.4808 14.5196 15.5861 14.7071 15.7737C14.8946 15.9612 15 16.2156 15 16.4808V21.4808H11Z" stroke="#CCCCCC" stroke-width="2" stroke-linecap="round" stroke-linejoin="round"/>
</svg>
