<svg width="25" height="25" viewBox="0 0 25 25" fill="none" xmlns="http://www.w3.org/2000/svg">
<path d="M12.4307 5.1448C12.9682 4.5355 13.6784 4.10431 14.4669 3.9086C15.2555 3.71288 16.0849 3.76193 16.8449 4.0492C17.6048 4.33648 18.2593 4.84837 18.7212 5.51676C19.1831 6.18515 19.4305 6.97835 19.4305 7.7908C19.4305 8.60326 19.1831 9.39646 18.7212 10.0648C18.2593 10.7332 17.6048 11.2451 16.8449 11.5324C16.0849 11.8197 15.2555 11.8687 14.4669 11.673C13.6784 11.4773 12.9682 11.0461 12.4307 10.4368V5.1448ZM15.4307 21.7908H3.43073V20.7908C3.43073 19.1995 4.06287 17.6734 5.18808 16.5482C6.3133 15.4229 7.83943 14.7908 9.43073 14.7908C11.022 14.7908 12.5481 15.4229 13.6734 16.5482C14.7986 17.6734 15.4307 19.1995 15.4307 20.7908V21.7908ZM15.4307 21.7908H21.4307V20.7908C21.4309 19.7375 21.1537 18.7027 20.6272 17.7905C20.1006 16.8783 19.3432 16.1207 18.4311 15.594C17.519 15.0673 16.4842 14.79 15.4309 14.79C14.3776 14.7899 13.3429 15.0672 12.4307 15.5938L15.4307 21.7908ZM13.4307 7.7908C13.4307 8.85167 13.0093 9.86908 12.2592 10.6192C11.509 11.3694 10.4916 11.7908 9.43073 11.7908C8.36986 11.7908 7.35244 11.3694 6.6023 10.6192C5.85215 9.86908 5.43073 8.85167 5.43073 7.7908C5.43073 6.72994 5.85215 5.71252 6.6023 4.96238C7.35244 4.21223 8.36986 3.7908 9.43073 3.7908C10.4916 3.7908 11.509 4.21223 12.2592 4.96238C13.0093 5.71252 13.4307 6.72994 13.4307 7.7908V7.7908Z" stroke="#CCCCCC" stroke-width="2" stroke-linecap="round" stroke-linejoin="round"/>
</svg>
